<svg width="371" height="107" viewBox="0 0 371 107" fill="none" xmlns="http://www.w3.org/2000/svg">
<path d="M243.48 60.8C243.72 59.8667 244.027 58.8533 244.4 57.76C244.773 56.6667 245.173 55.5733 245.6 54.48C246.053 53.3867 246.493 52.3733 246.92 51.44H249.52C249.28 52.4533 249.027 53.5467 248.76 54.72C248.493 55.8667 248.253 57.0133 248.04 58.16C247.827 59.28 247.653 60.3067 247.52 61.24H243.72L243.48 60.8Z" fill="url(#paint0_linear_1536_814)"/>
<path d="M9.91961 44.28H11.1196V45H3.49961V44.28H4.99961V3.72H3.49961V3H9.85961V3.72L9.91961 31.44C9.91961 31.12 10.0796 30.84 10.3996 30.6C10.7196 30.36 11.2996 30.24 12.1396 30.24C12.8996 30.24 13.4996 30.12 13.9396 29.88C14.3796 29.64 14.6996 29.06 14.8996 28.14C15.1396 27.18 15.2796 25.76 15.3196 23.88C15.3996 22 15.4396 19.42 15.4396 16.14C15.4396 12.9 15.2996 10.44 15.0196 8.76C14.7396 7.08 14.3396 5.86 13.8196 5.1C13.3396 4.34 12.7396 3.92 12.0196 3.84C11.3396 3.76 10.6196 3.72 9.85961 3.72V3C11.7796 3 13.3996 3.08 14.7196 3.24C16.0396 3.36 17.0996 3.84 17.8996 4.68C18.6996 5.48 19.2596 6.78 19.5796 8.58C19.8996 10.34 20.0596 12.86 20.0596 16.14C20.0596 19.78 19.9796 22.6 19.8196 24.6C19.6996 26.6 19.3796 28.08 18.8596 29.04C18.3396 30 17.5196 30.58 16.3996 30.78C15.3196 30.98 13.8196 31.08 11.8996 31.08C11.1796 31.08 10.6596 31.28 10.3396 31.68C10.0596 32.08 9.91961 32.68 9.91961 33.48V44.28ZM30.9604 25.92L24.7204 3.72H23.4004V3H30.4804V3.72H29.1004L34.2604 24L39.7804 3.72H38.5204V3H41.8204V3.72H40.6804L34.7404 24.96V44.28H36.0004V45H29.4604V44.28H30.9604V25.92ZM62.5902 3V5.94H61.8102V3.72H55.8702L55.9302 44.28H57.1302V45H49.5102V44.28H51.0102V3.72H45.3702V5.94H44.5902V3H62.5902ZM75.8423 34.08L71.5223 5.94L67.5023 35.94C67.5023 35.34 67.9023 34.88 68.7023 34.56C69.5423 34.24 70.4423 34.08 71.4023 34.08H75.8423ZM75.9623 34.68H71.1623C70.8023 34.68 70.4023 34.72 69.9623 34.8C69.5623 34.84 69.1623 34.96 68.7623 35.16C68.4023 35.32 68.0823 35.56 67.8023 35.88C67.5623 36.16 67.4223 36.54 67.3823 37.02L66.4223 44.4H67.4423V45C67.3223 45 67.0823 45 66.7223 45C66.4023 45 66.0823 45 65.7623 45C65.4423 45 65.1623 45 64.9223 45C64.6423 45 64.5023 44.98 64.5023 44.94V44.4H65.4623C65.4623 44.36 65.5423 43.76 65.7023 42.6C65.8623 41.4 66.0623 39.86 66.3023 37.98C66.5823 36.06 66.8823 33.88 67.2023 31.44C67.5223 29 67.8423 26.52 68.1623 24C68.9223 18.04 69.7823 11.28 70.7423 3.72H69.2423V3H75.7223L83.2223 44.4H84.4223V45H75.8423V44.4H77.3423L75.9623 34.68ZM103.086 45C100.926 39.68 98.9665 34.84 97.2065 30.48C96.4465 28.64 95.7065 26.8 94.9865 24.96C94.2665 23.12 93.6065 21.44 93.0065 19.92C92.4065 18.4 91.9065 17.1 91.5065 16.02C91.1065 14.9 90.8665 14.16 90.7865 13.8V44.28H91.9865V45H88.1465V44.28H89.6465V3.72H88.1465V3H91.9865L104.586 34.86V3.72H103.086V3H106.926V3.72H105.666V24.12C105.666 26.68 105.666 29.2 105.666 31.68C105.666 34.12 105.666 36.32 105.666 38.28C105.706 40.24 105.726 41.84 105.726 43.08C105.726 44.28 105.726 44.92 105.726 45H103.086ZM110.825 3.72V3H118.445V3.72H117.185L117.245 44.28H118.445V45H110.825V44.28H112.325V3.72H110.825ZM132.327 34.08L128.007 5.94L123.987 35.94C123.987 35.34 124.387 34.88 125.187 34.56C126.027 34.24 126.927 34.08 127.887 34.08H132.327ZM132.447 34.68H127.647C127.287 34.68 126.887 34.72 126.447 34.8C126.047 34.84 125.647 34.96 125.247 35.16C124.887 35.32 124.567 35.56 124.287 35.88C124.047 36.16 123.907 36.54 123.867 37.02L122.907 44.4H123.927V45C123.807 45 123.567 45 123.207 45C122.887 45 122.567 45 122.247 45C121.927 45 121.647 45 121.407 45C121.127 45 120.987 44.98 120.987 44.94V44.4H121.947C121.947 44.36 122.027 43.76 122.187 42.6C122.347 41.4 122.547 39.86 122.787 37.98C123.067 36.06 123.367 33.88 123.687 31.44C124.007 29 124.327 26.52 124.647 24C125.407 18.04 126.267 11.28 127.227 3.72H125.727V3H132.207L139.707 44.4H140.907V45H132.327V44.4H133.827L132.447 34.68ZM160.238 36C160.198 31.2 160.178 27.26 160.178 24.18C160.218 21.1 160.238 18.66 160.238 16.86V12C160.238 11.04 160.278 10.04 160.358 9C160.438 7.92 160.718 6.94 161.198 6.06C161.678 5.18 162.438 4.46 163.478 3.9C164.558 3.3 166.058 3 167.978 3C169.938 3 171.438 3.26 172.478 3.78C173.558 4.26 174.338 4.92 174.818 5.76C175.338 6.56 175.638 7.5 175.718 8.58C175.798 9.66 175.818 10.8 175.778 12C175.778 15.04 175.778 17.72 175.778 20.04C175.818 22.32 175.838 24.32 175.838 26.04C175.838 27.72 175.838 29.14 175.838 30.3C175.878 31.46 175.898 32.4 175.898 33.12C175.898 34.84 175.918 35.8 175.958 36C175.958 37.52 175.918 38.84 175.838 39.96C175.758 41.08 175.458 42.02 174.938 42.78C174.458 43.5 173.678 44.06 172.598 44.46C171.518 44.82 169.978 45 167.978 45C166.058 45 164.558 44.82 163.478 44.46C162.438 44.06 161.678 43.48 161.198 42.72C160.718 41.96 160.438 41.04 160.358 39.96C160.278 38.84 160.238 37.52 160.238 36ZM164.858 36C164.858 37.32 164.878 38.5 164.918 39.54C164.958 40.54 165.058 41.4 165.218 42.12C165.418 42.8 165.718 43.34 166.118 43.74C166.558 44.1 167.178 44.28 167.978 44.28C168.738 44.28 169.318 44.1 169.718 43.74C170.158 43.34 170.478 42.8 170.678 42.12C170.878 41.4 170.978 40.54 170.978 39.54C171.018 38.5 171.038 37.32 171.038 36V31.92C171.038 30.24 171.018 27.84 170.978 24.72C170.978 21.56 170.958 17.32 170.918 12C170.958 10.96 170.958 9.96 170.918 9C170.878 8 170.758 7.12 170.558 6.36C170.398 5.56 170.098 4.92 169.658 4.44C169.258 3.96 168.698 3.72 167.978 3.72C167.178 3.72 166.558 4 166.118 4.56C165.718 5.08 165.418 5.76 165.218 6.6C165.058 7.4 164.958 8.3 164.918 9.3C164.878 10.26 164.858 11.16 164.858 12V17.76C164.858 19.72 164.838 22.22 164.798 25.26C164.798 28.26 164.818 31.84 164.858 36ZM185.913 44.22C186.433 44.22 186.933 44.18 187.413 44.1C187.893 44.02 188.333 43.76 188.733 43.32C189.173 42.88 189.553 42.2 189.873 41.28C190.233 40.32 190.533 38.98 190.773 37.26C191.013 35.54 191.193 33.38 191.313 30.78C191.433 28.14 191.493 24.92 191.493 21.12C191.493 16.8 191.353 13.48 191.073 11.16C190.793 8.8 190.393 7.08 189.873 6C189.353 4.92 188.753 4.3 188.073 4.14C187.393 3.94 186.673 3.84 185.913 3.84V44.22ZM179.553 45V44.22H181.053V3.84H179.553V3.12H185.913C187.193 3.12 188.333 3.16 189.333 3.24C190.373 3.28 191.253 3.46 191.973 3.78C192.733 4.1 193.373 4.62 193.893 5.34C194.413 6.06 194.833 7.08 195.153 8.4C195.513 9.72 195.753 11.42 195.873 13.5C196.033 15.58 196.113 18.12 196.113 21.12C196.113 25.12 196.033 28.48 195.873 31.2C195.753 33.92 195.533 36.18 195.213 37.98C194.893 39.74 194.473 41.1 193.953 42.06C193.433 43.02 192.793 43.72 192.033 44.16C191.273 44.56 190.373 44.8 189.333 44.88C188.333 44.96 187.193 45 185.913 45H179.553ZM230.704 45C228.544 39.68 226.584 34.84 224.824 30.48C224.064 28.64 223.324 26.8 222.604 24.96C221.884 23.12 221.224 21.44 220.624 19.92C220.024 18.4 219.524 17.1 219.124 16.02C218.724 14.9 218.484 14.16 218.404 13.8V44.28H219.604V45H215.764V44.28H217.264V3.72H215.764V3H219.604L232.204 34.86V3.72H230.704V3H234.544V3.72H233.284V24.12C233.284 26.68 233.284 29.2 233.284 31.68C233.284 34.12 233.284 36.32 233.284 38.28C233.324 40.24 233.344 41.84 233.344 43.08C233.344 44.28 233.344 44.92 233.344 45H230.704ZM248.342 34.08L244.022 5.94L240.002 35.94C240.002 35.34 240.402 34.88 241.202 34.56C242.042 34.24 242.942 34.08 243.902 34.08H248.342ZM248.462 34.68H243.662C243.302 34.68 242.902 34.72 242.462 34.8C242.062 34.84 241.662 34.96 241.262 35.16C240.902 35.32 240.582 35.56 240.302 35.88C240.062 36.16 239.922 36.54 239.882 37.02L238.922 44.4H239.942V45C239.822 45 239.582 45 239.222 45C238.902 45 238.582 45 238.262 45C237.942 45 237.662 45 237.422 45C237.142 45 237.002 44.98 237.002 44.94V44.4H237.962C237.962 44.36 238.042 43.76 238.202 42.6C238.362 41.4 238.562 39.86 238.802 37.98C239.082 36.06 239.382 33.88 239.702 31.44C240.022 29 240.342 26.52 240.662 24C241.422 18.04 242.282 11.28 243.242 3.72H241.742V3H248.222L255.722 44.4H256.922V45H248.342V44.4H249.842L248.462 34.68ZM267.906 44.34C268.826 44.34 269.606 44.22 270.246 43.98C270.926 43.7 271.426 43.24 271.746 42.6C272.066 41.96 272.166 41.1 272.046 40.02C271.966 38.94 271.606 37.58 270.966 35.94L261.366 13.26C260.966 12.18 260.746 11.04 260.706 9.84C260.666 8.6 260.886 7.48 261.366 6.48C261.846 5.48 262.646 4.66 263.766 4.02C264.886 3.34 266.406 3 268.326 3C270.046 3 271.426 3.2 272.466 3.6C273.506 4 274.266 4.48 274.746 5.04C275.266 5.6 275.546 6.2 275.586 6.84C275.626 7.44 275.506 7.96 275.226 8.4C274.986 8.84 274.606 9.16 274.086 9.36C273.606 9.52 273.086 9.42 272.526 9.06C271.846 8.66 271.466 8.26 271.386 7.86C271.306 7.42 271.326 7.02 271.446 6.66C271.566 6.26 271.706 5.88 271.866 5.52C272.066 5.16 272.126 4.84 272.046 4.56C271.966 4.28 271.646 4.06 271.086 3.9C270.566 3.74 269.646 3.64 268.326 3.6C267.406 3.6 266.606 3.74 265.926 4.02C265.286 4.26 264.806 4.7 264.486 5.34C264.166 5.98 264.046 6.84 264.126 7.92C264.246 9 264.606 10.36 265.206 12L274.806 34.68H274.866C275.266 35.76 275.486 36.92 275.526 38.16C275.566 39.36 275.346 40.46 274.866 41.46C274.386 42.46 273.586 43.3 272.466 43.98C271.346 44.62 269.826 44.94 267.906 44.94C266.186 44.94 264.806 44.74 263.766 44.34C262.726 43.94 261.946 43.46 261.426 42.9C260.946 42.34 260.686 41.76 260.646 41.16C260.606 40.52 260.706 39.98 260.946 39.54C261.226 39.1 261.606 38.8 262.086 38.64C262.566 38.48 263.106 38.56 263.706 38.88C264.386 39.28 264.766 39.7 264.846 40.14C264.926 40.54 264.906 40.94 264.786 41.34C264.666 41.74 264.506 42.12 264.306 42.48C264.146 42.84 264.106 43.16 264.186 43.44C264.266 43.72 264.566 43.94 265.086 44.1C265.646 44.26 266.586 44.34 267.906 44.34ZM281.477 44.4L289.577 3.6H280.937V5.1H280.217V3H296.657V3.6H295.457L287.357 44.4H295.997V42.9H296.717V45H280.277V44.4H281.477ZM309.105 25.92L302.865 3.72H301.545V3H308.625V3.72H307.245L312.405 24L317.925 3.72H316.665V3H319.965V3.72H318.825L312.885 24.96V44.28H314.145V45H307.605V44.28H309.105V25.92ZM331.375 44.28C332.695 44.28 333.615 44.2 334.135 44.04C334.695 43.88 335.015 43.68 335.095 43.44C335.175 43.16 335.115 42.84 334.915 42.48C334.755 42.12 334.615 41.76 334.495 41.4C334.375 41 334.355 40.6 334.435 40.2C334.515 39.76 334.895 39.34 335.575 38.94C336.135 38.62 336.655 38.54 337.135 38.7C337.655 38.86 338.035 39.16 338.275 39.6C338.555 40.04 338.675 40.58 338.635 41.22C338.595 41.82 338.315 42.4 337.795 42.96C337.315 43.52 336.555 44 335.515 44.4C334.475 44.8 333.095 45 331.375 45C329.455 45 327.955 44.82 326.875 44.46C325.835 44.06 325.075 43.48 324.595 42.72C324.115 41.96 323.835 41.04 323.755 39.96C323.675 38.84 323.635 37.52 323.635 36C323.595 31.2 323.595 27.26 323.635 24.18C323.635 21.1 323.635 18.66 323.635 16.86V12C323.635 11.04 323.675 10.04 323.755 9C323.835 7.92 324.115 6.94 324.595 6.06C325.075 5.18 325.835 4.46 326.875 3.9C327.915 3.3 329.395 3 331.315 3C333.035 3 334.415 3.2 335.455 3.6C336.495 4 337.255 4.48 337.735 5.04C338.255 5.6 338.535 6.2 338.575 6.84C338.615 7.44 338.495 7.96 338.215 8.4C337.975 8.84 337.595 9.16 337.075 9.36C336.595 9.52 336.075 9.42 335.515 9.06C334.835 8.66 334.455 8.26 334.375 7.86C334.295 7.42 334.315 7.02 334.435 6.66C334.555 6.26 334.695 5.88 334.855 5.52C335.055 5.16 335.115 4.86 335.035 4.62C334.955 4.34 334.635 4.12 334.075 3.96C333.555 3.8 332.635 3.72 331.315 3.72C330.515 3.72 329.915 4 329.515 4.56C329.115 5.08 328.815 5.76 328.615 6.6C328.415 7.4 328.295 8.3 328.255 9.3C328.255 10.26 328.255 11.16 328.255 12V17.76C328.255 19.72 328.235 22.22 328.195 25.26C328.195 28.26 328.215 31.84 328.255 36C328.255 37.32 328.275 38.5 328.315 39.54C328.355 40.54 328.455 41.4 328.615 42.12C328.815 42.8 329.115 43.34 329.515 43.74C329.955 44.1 330.575 44.28 331.375 44.28ZM357.665 25.08H353.285C353.045 25.08 352.705 25.1 352.265 25.14C351.865 25.18 351.465 25.28 351.065 25.44C350.665 25.56 350.325 25.74 350.045 25.98C349.765 26.22 349.625 26.54 349.625 26.94V44.28H350.825V45H343.205V44.28H344.705V3.72H343.205V3H350.825V3.72H349.565L349.625 25.32C349.625 25.16 349.745 25.02 349.985 24.9C350.225 24.78 350.545 24.68 350.945 24.6C351.345 24.48 351.765 24.4 352.205 24.36C352.645 24.28 353.085 24.24 353.525 24.24H357.665V3.72H356.165V3H363.785V3.72H362.525L362.585 44.28H363.785V45H356.165V44.28H357.665V25.08ZM93.385 104.34C94.305 104.34 95.085 104.22 95.725 103.98C96.405 103.7 96.905 103.24 97.225 102.6C97.545 101.96 97.645 101.1 97.525 100.02C97.445 98.94 97.085 97.58 96.445 95.94L86.845 73.26C86.445 72.18 86.225 71.04 86.185 69.84C86.145 68.6 86.365 67.48 86.845 66.48C87.325 65.48 88.125 64.66 89.245 64.02C90.365 63.34 91.885 63 93.805 63C95.525 63 96.905 63.2 97.945 63.6C98.985 64 99.745 64.48 100.225 65.04C100.745 65.6 101.025 66.2 101.065 66.84C101.105 67.44 100.985 67.96 100.705 68.4C100.465 68.84 100.085 69.16 99.565 69.36C99.085 69.52 98.565 69.42 98.005 69.06C97.325 68.66 96.945 68.26 96.865 67.86C96.785 67.42 96.805 67.02 96.925 66.66C97.045 66.26 97.185 65.88 97.345 65.52C97.545 65.16 97.605 64.84 97.525 64.56C97.445 64.28 97.125 64.06 96.565 63.9C96.045 63.74 95.125 63.64 93.805 63.6C92.885 63.6 92.085 63.74 91.405 64.02C90.765 64.26 90.285 64.7 89.965 65.34C89.645 65.98 89.525 66.84 89.605 67.92C89.725 69 90.085 70.36 90.685 72L100.285 94.68H100.345C100.745 95.76 100.965 96.92 101.005 98.16C101.045 99.36 100.825 100.46 100.345 101.46C99.865 102.46 99.065 103.3 97.945 103.98C96.825 104.62 95.305 104.94 93.385 104.94C91.665 104.94 90.285 104.74 89.245 104.34C88.205 103.94 87.425 103.46 86.905 102.9C86.425 102.34 86.165 101.76 86.125 101.16C86.085 100.52 86.185 99.98 86.425 99.54C86.705 99.1 87.085 98.8 87.565 98.64C88.045 98.48 88.585 98.56 89.185 98.88C89.865 99.28 90.245 99.7 90.325 100.14C90.405 100.54 90.385 100.94 90.265 101.34C90.145 101.74 89.985 102.12 89.785 102.48C89.625 102.84 89.585 103.16 89.665 103.44C89.745 103.72 90.045 103.94 90.565 104.1C91.125 104.26 92.065 104.34 93.385 104.34ZM122.795 63V65.94H122.015V63.72H116.075L116.135 104.28H117.335V105H109.715V104.28H111.215V63.72H105.575V65.94H104.795V63H122.795ZM141.567 72C141.567 75.04 141.567 77.72 141.567 80.04C141.607 82.32 141.627 84.32 141.627 86.04C141.627 87.72 141.627 89.14 141.627 90.3C141.667 91.46 141.687 92.4 141.687 93.12C141.687 94.84 141.707 95.8 141.747 96C141.747 97.52 141.707 98.84 141.627 99.96C141.547 101.08 141.247 102.02 140.727 102.78C140.247 103.5 139.467 104.06 138.387 104.46C137.307 104.82 135.767 105 133.767 105C131.847 105 130.347 104.82 129.267 104.46C128.227 104.06 127.467 103.48 126.987 102.72C126.507 101.96 126.227 101.04 126.147 99.96C126.067 98.84 126.027 97.52 126.027 96C125.987 91.2 125.987 87.26 126.027 84.18C126.027 81.1 126.027 78.66 126.027 76.86V72V63.72H124.527V63H131.907V63.72H130.647V72V77.76C130.647 79.72 130.627 82.22 130.587 85.26C130.587 88.26 130.607 91.84 130.647 96C130.647 97.32 130.667 98.5 130.707 99.54C130.747 100.54 130.847 101.4 131.007 102.12C131.207 102.8 131.507 103.34 131.907 103.74C132.347 104.1 132.967 104.28 133.767 104.28C134.527 104.28 135.107 104.1 135.507 103.74C135.947 103.34 136.267 102.8 136.467 102.12C136.667 101.4 136.767 100.54 136.767 99.54C136.807 98.5 136.827 97.32 136.827 96V91.92C136.827 90.24 136.807 87.84 136.767 84.72C136.767 81.56 136.747 77.32 136.707 72V63.72H135.207V63H142.827V63.72H141.567V72ZM154.36 104.22C154.88 104.22 155.38 104.18 155.86 104.1C156.34 104.02 156.78 103.76 157.18 103.32C157.62 102.88 158 102.2 158.32 101.28C158.68 100.32 158.98 98.98 159.22 97.26C159.46 95.54 159.64 93.38 159.76 90.78C159.88 88.14 159.94 84.92 159.94 81.12C159.94 76.8 159.8 73.48 159.52 71.16C159.24 68.8 158.84 67.08 158.32 66C157.8 64.92 157.2 64.3 156.52 64.14C155.84 63.94 155.12 63.84 154.36 63.84V104.22ZM148 105V104.22H149.5V63.84H148V63.12H154.36C155.64 63.12 156.78 63.16 157.78 63.24C158.82 63.28 159.7 63.46 160.42 63.78C161.18 64.1 161.82 64.62 162.34 65.34C162.86 66.06 163.28 67.08 163.6 68.4C163.96 69.72 164.2 71.42 164.32 73.5C164.48 75.58 164.56 78.12 164.56 81.12C164.56 85.12 164.48 88.48 164.32 91.2C164.2 93.92 163.98 96.18 163.66 97.98C163.34 99.74 162.92 101.1 162.4 102.06C161.88 103.02 161.24 103.72 160.48 104.16C159.72 104.56 158.82 104.8 157.78 104.88C156.78 104.96 155.64 105 154.36 105H148ZM184.264 63V65.64H183.484V63.72H175.864L175.924 83.34C175.924 82.94 176.084 82.64 176.404 82.44C176.724 82.2 177.304 82.08 178.144 82.08H181.024V80.82H181.804V84H181.024V82.86H177.904C177.184 82.86 176.664 83.06 176.344 83.46C176.064 83.86 175.924 84.46 175.924 85.26V104.28H183.484V102.36H184.264V105H169.504V104.28H171.004V63.72H169.504V63H184.264ZM203.428 105C201.268 99.68 199.308 94.84 197.548 90.48C196.788 88.64 196.048 86.8 195.328 84.96C194.608 83.12 193.948 81.44 193.348 79.92C192.748 78.4 192.248 77.1 191.848 76.02C191.448 74.9 191.208 74.16 191.128 73.8V104.28H192.328V105H188.488V104.28H189.988V63.72H188.488V63H192.328L204.928 94.86V63.72H203.428V63H207.268V63.72H206.008V84.12C206.008 86.68 206.008 89.2 206.008 91.68C206.008 94.12 206.008 96.32 206.008 98.28C206.048 100.24 206.068 101.84 206.068 103.08C206.068 104.28 206.068 104.92 206.068 105H203.428ZM228.147 63V65.94H227.367V63.72H221.427L221.487 104.28H222.687V105H215.067V104.28H216.567V63.72H210.927V65.94H210.147V63H228.147ZM232.279 96C232.239 91.2 232.219 87.26 232.219 84.18C232.259 81.1 232.279 78.66 232.279 76.86V72C232.279 71.04 232.319 70.04 232.399 69C232.479 67.92 232.759 66.94 233.239 66.06C233.719 65.18 234.479 64.46 235.519 63.9C236.599 63.3 238.099 63 240.019 63C241.979 63 243.479 63.26 244.519 63.78C245.599 64.26 246.379 64.92 246.859 65.76C247.379 66.56 247.679 67.5 247.759 68.58C247.839 69.66 247.859 70.8 247.819 72C247.819 75.04 247.819 77.72 247.819 80.04C247.859 82.32 247.879 84.32 247.879 86.04C247.879 87.72 247.879 89.14 247.879 90.3C247.919 91.46 247.939 92.4 247.939 93.12C247.939 94.84 247.959 95.8 247.999 96C247.999 97.52 247.959 98.84 247.879 99.96C247.799 101.08 247.499 102.02 246.979 102.78C246.499 103.5 245.719 104.06 244.639 104.46C243.559 104.82 242.019 105 240.019 105C238.099 105 236.599 104.82 235.519 104.46C234.479 104.06 233.719 103.48 233.239 102.72C232.759 101.96 232.479 101.04 232.399 99.96C232.319 98.84 232.279 97.52 232.279 96ZM236.899 96C236.899 97.32 236.919 98.5 236.959 99.54C236.999 100.54 237.099 101.4 237.259 102.12C237.459 102.8 237.759 103.34 238.159 103.74C238.599 104.1 239.219 104.28 240.019 104.28C240.779 104.28 241.359 104.1 241.759 103.74C242.199 103.34 242.519 102.8 242.719 102.12C242.919 101.4 243.019 100.54 243.019 99.54C243.059 98.5 243.079 97.32 243.079 96V91.92C243.079 90.24 243.059 87.84 243.019 84.72C243.019 81.56 242.999 77.32 242.959 72C242.999 70.96 242.999 69.96 242.959 69C242.919 68 242.799 67.12 242.599 66.36C242.439 65.56 242.139 64.92 241.699 64.44C241.299 63.96 240.739 63.72 240.019 63.72C239.219 63.72 238.599 64 238.159 64.56C237.759 65.08 237.459 65.76 237.259 66.6C237.099 67.4 236.999 68.3 236.959 69.3C236.919 70.26 236.899 71.16 236.899 72V77.76C236.899 79.72 236.879 82.22 236.839 85.26C236.839 88.26 236.859 91.84 236.899 96ZM266.168 83.88C266.128 83.92 266.048 84.26 265.928 84.9C265.848 85.5 265.728 86.3 265.568 87.3C265.408 88.3 265.228 89.44 265.028 90.72C264.828 91.96 264.628 93.24 264.428 94.56C263.948 97.64 263.408 101.12 262.808 105L257.948 105.06L251.828 63.6H250.628V63H259.208V63.6H257.708L262.148 102.06L265.748 81L263.168 63.6H261.968V63H270.548V63.6H269.048L273.488 102.06L279.968 63.6H278.948V63C279.068 63 279.288 63 279.608 63C279.968 63 280.308 63 280.628 63C280.948 63 281.228 63 281.468 63C281.748 63 281.888 63.02 281.888 63.06V63.6H280.928C280.888 63.64 280.768 64.26 280.568 65.46C280.368 66.66 280.108 68.24 279.788 70.2C279.468 72.16 279.088 74.38 278.648 76.86C278.248 79.34 277.848 81.86 277.448 84.42C276.448 90.46 275.348 97.32 274.148 105L269.288 105.06L266.168 83.88Z" fill="url(#paint1_linear_1536_814)"/>
<defs>
<linearGradient id="paint0_linear_1536_814" x1="243" y1="60.8632" x2="249.725" y2="60.4557" gradientUnits="userSpaceOnUse">
<stop stop-color="#F4D5CC"/>
<stop offset="0.505208" stop-color="#FFF4F1"/>
<stop offset="1" stop-color="#F4D5CC"/>
</linearGradient>
<linearGradient id="paint1_linear_1536_814" x1="-2.20847e-06" y1="96.8631" x2="354.731" y2="-52.1899" gradientUnits="userSpaceOnUse">
<stop stop-color="#F4D5CC"/>
<stop offset="0.505208" stop-color="#FFF4F1"/>
<stop offset="1" stop-color="#F4D5CC"/>
</linearGradient>
</defs>
</svg>
