<svg width="291" height="102" viewBox="0 0 291 102" fill="none" xmlns="http://www.w3.org/2000/svg">
<path d="M0.831641 33C0.791641 28.2 0.771641 24.26 0.771641 21.18C0.811641 18.1 0.831641 15.66 0.831641 13.86V9C0.831641 8.04 0.871641 7.04 0.951641 6C1.03164 4.92 1.31164 3.94 1.79164 3.06C2.27164 2.18 3.03164 1.46 4.07164 0.899996C5.15164 0.299997 6.65164 -2.86102e-06 8.57164 -2.86102e-06C10.5316 -2.86102e-06 12.0316 0.259997 13.0716 0.779998C14.1516 1.26 14.9316 1.92 15.4116 2.76C15.9316 3.56 16.2316 4.5 16.3116 5.58C16.3916 6.66 16.4116 7.8 16.3716 9C16.3716 12.04 16.3716 14.72 16.3716 17.04C16.4116 19.32 16.4316 21.32 16.4316 23.04C16.4316 24.72 16.4316 26.14 16.4316 27.3C16.4716 28.46 16.4916 29.4 16.4916 30.12C16.4916 31.84 16.5116 32.8 16.5516 33C16.5516 34.52 16.5116 35.84 16.4316 36.96C16.3516 38.08 16.0516 39.02 15.5316 39.78C15.0516 40.5 14.2716 41.06 13.1916 41.46C12.1116 41.82 10.5716 42 8.57164 42C6.65164 42 5.15164 41.82 4.07164 41.46C3.03164 41.06 2.27164 40.48 1.79164 39.72C1.31164 38.96 1.03164 38.04 0.951641 36.96C0.871641 35.84 0.831641 34.52 0.831641 33ZM5.45164 33C5.45164 34.32 5.47164 35.5 5.51164 36.54C5.55164 37.54 5.65164 38.4 5.81164 39.12C6.01164 39.8 6.31164 40.34 6.71164 40.74C7.15164 41.1 7.77164 41.28 8.57164 41.28C9.33164 41.28 9.91164 41.1 10.3116 40.74C10.7516 40.34 11.0716 39.8 11.2716 39.12C11.4716 38.4 11.5716 37.54 11.5716 36.54C11.6116 35.5 11.6316 34.32 11.6316 33V28.92C11.6316 27.24 11.6116 24.84 11.5716 21.72C11.5716 18.56 11.5516 14.32 11.5116 9C11.5516 7.96 11.5516 6.96 11.5116 6C11.4716 5 11.3516 4.12 11.1516 3.36C10.9916 2.56 10.6916 1.92 10.2516 1.44C9.85164 0.959998 9.29164 0.719999 8.57164 0.719999C7.77164 0.719999 7.15164 0.999999 6.71164 1.56C6.31164 2.08 6.01164 2.76 5.81164 3.6C5.65164 4.4 5.55164 5.3 5.51164 6.3C5.47164 7.26 5.45164 8.16 5.45164 9V14.76C5.45164 16.72 5.43164 19.22 5.39164 22.26C5.39164 25.26 5.41164 28.84 5.45164 33ZM37.9496 -2.86102e-06V2.94H37.1696V0.719999H31.2296L31.2896 41.28H32.4896V42H24.8696V41.28H26.3696V0.719999H20.7296V2.94H19.9496V-2.86102e-06H37.9496ZM48.676 41.28C49.436 41.28 50.036 40.98 50.476 40.38C50.956 39.74 51.316 38.86 51.556 37.74C51.796 36.62 51.936 35.28 51.976 33.72C52.056 32.16 52.096 30.44 52.096 28.56C52.056 24.08 51.676 20.88 50.956 18.96C50.276 17.04 49.156 16.08 47.596 16.08V15.24C48.356 15.24 48.996 15.02 49.516 14.58C50.076 14.14 50.516 13.56 50.836 12.84C51.196 12.08 51.436 11.22 51.556 10.26C51.676 9.3 51.736 8.3 51.736 7.26C51.736 6.42 51.716 5.6 51.676 4.8C51.676 4 51.576 3.3 51.376 2.7C51.216 2.06 50.916 1.56 50.476 1.2C50.076 0.839999 49.496 0.679999 48.736 0.719999C47.416 0.719999 46.476 0.799999 45.916 0.959999C45.396 1.12 45.096 1.34 45.016 1.62C44.936 1.86 44.976 2.16 45.136 2.52C45.336 2.88 45.496 3.26 45.616 3.66C45.736 4.02 45.736 4.42 45.616 4.86C45.536 5.26 45.176 5.66 44.536 6.06C43.976 6.42 43.436 6.52 42.916 6.36C42.436 6.16 42.056 5.84 41.776 5.4C41.536 4.96 41.436 4.44 41.476 3.84C41.516 3.2 41.776 2.6 42.256 2.04C42.776 1.48 43.556 0.999999 44.596 0.599997C45.636 0.199997 47.016 -2.86102e-06 48.736 -2.86102e-06C50.416 -2.86102e-06 51.716 0.279997 52.636 0.839997C53.596 1.4 54.276 2.08 54.676 2.88C55.116 3.64 55.356 4.44 55.396 5.28C55.476 6.12 55.516 6.78 55.516 7.26C55.596 12.78 53.456 15.56 49.096 15.6C50.216 15.56 51.276 15.78 52.276 16.26C53.316 16.7 54.216 17.44 54.976 18.48C55.776 19.48 56.396 20.82 56.836 22.5C57.276 24.14 57.496 26.16 57.496 28.56C57.496 30.24 57.396 31.9 57.196 33.54C56.996 35.14 56.576 36.56 55.936 37.8C55.336 39.04 54.456 40.06 53.296 40.86C52.136 41.62 50.596 42 48.676 42C46.956 42 45.576 41.8 44.536 41.4C43.496 41 42.716 40.52 42.196 39.96C41.716 39.4 41.456 38.82 41.416 38.22C41.376 37.58 41.476 37.04 41.716 36.6C41.996 36.16 42.376 35.86 42.856 35.7C43.336 35.54 43.876 35.62 44.476 35.94C45.156 36.34 45.536 36.76 45.616 37.2C45.696 37.6 45.676 38 45.556 38.4C45.436 38.76 45.276 39.12 45.076 39.48C44.916 39.84 44.876 40.16 44.956 40.44C45.036 40.68 45.336 40.88 45.856 41.04C46.416 41.2 47.356 41.28 48.676 41.28ZM80.3968 0.719999V-2.86102e-06H88.0168V0.719999H86.7568L86.8168 41.28H88.0168V42H80.3968V41.28H81.8968V0.719999H80.3968ZM62.2168 42V41.28H63.7168V0.719999H62.2168V-2.86102e-06H69.8368V0.719999H68.6368V11.52C68.6368 12.32 68.7768 12.92 69.0568 13.32C69.3768 13.72 69.8968 13.92 70.6168 13.92C72.5368 13.92 74.0368 14.02 75.1168 14.22C76.2368 14.42 77.0568 15 77.5768 15.96C78.0968 16.92 78.4168 18.4 78.5368 20.4C78.6968 22.4 78.7768 25.22 78.7768 28.86C78.7768 32.14 78.6168 34.68 78.2968 36.48C77.9768 38.24 77.4168 39.54 76.6168 40.38C75.8168 41.18 74.7568 41.66 73.4368 41.82C72.1168 41.94 70.4968 42 68.5768 42H62.2168ZM68.5768 41.28C69.3368 41.28 70.0568 41.24 70.7368 41.16C71.4568 41.08 72.0568 40.66 72.5368 39.9C73.0568 39.14 73.4568 37.92 73.7368 36.24C74.0168 34.56 74.1568 32.1 74.1568 28.86C74.1568 25.58 74.1168 23 74.0368 21.12C73.9968 19.24 73.8568 17.84 73.6168 16.92C73.4168 15.96 73.0968 15.36 72.6568 15.12C72.2168 14.88 71.6168 14.76 70.8568 14.76C70.0168 14.76 69.4368 14.64 69.1168 14.4C68.7968 14.16 68.6368 13.88 68.6368 13.56L68.5768 41.28ZM99.9845 41.16C100.904 41.16 101.704 41.1 102.384 40.98C103.104 40.82 103.684 40.3 104.124 39.42C104.604 38.54 104.964 37.14 105.204 35.22C105.444 33.3 105.564 30.56 105.564 27C105.564 24.32 105.524 22.16 105.444 20.52C105.364 18.84 105.184 17.54 104.904 16.62C104.624 15.66 104.244 15.02 103.764 14.7C103.284 14.34 102.664 14.16 101.904 14.16C101.184 14.16 100.664 14.36 100.344 14.76C100.064 15.16 99.9245 15.76 99.9245 16.56L99.9845 41.16ZM93.5645 -2.86102e-06H99.9245C101.844 -2.86102e-06 103.364 0.199997 104.484 0.599997C105.644 0.959997 106.524 1.48 107.124 2.16C107.724 2.8 108.104 3.54 108.264 4.38C108.464 5.22 108.564 6.08 108.564 6.96C108.564 8 108.544 8.94 108.504 9.78C108.464 10.58 108.304 11.28 108.024 11.88C107.744 12.44 107.324 12.88 106.764 13.2C106.204 13.52 105.404 13.68 104.364 13.68C105.804 13.68 106.924 14.02 107.724 14.7C108.524 15.34 109.104 16.24 109.464 17.4C109.824 18.56 110.024 19.96 110.064 21.6C110.144 23.24 110.184 25.04 110.184 27C110.184 30.72 110.004 33.6 109.644 35.64C109.324 37.64 108.764 39.12 107.964 40.08C107.204 41.04 106.164 41.6 104.844 41.76C103.564 41.92 101.944 42 99.9845 42H93.5645V41.16H95.0645V0.839997H93.5645V-2.86102e-06ZM99.9245 14.46C99.9245 14.14 100.084 13.86 100.404 13.62C100.724 13.38 101.304 13.26 102.144 13.26C102.864 13.26 103.424 13.22 103.824 13.14C104.224 13.06 104.524 12.86 104.724 12.54C104.924 12.18 105.044 11.66 105.084 10.98C105.124 10.3 105.144 9.36 105.144 8.16C105.144 6.32 105.024 4.92 104.784 3.96C104.584 2.96 104.264 2.24 103.824 1.8C103.384 1.32 102.844 1.04 102.204 0.959999C101.564 0.879998 100.804 0.839997 99.9245 0.839997V14.46ZM133.483 0.719999V-2.86102e-06H141.103V0.719999H139.843L139.903 41.28H141.103V42H133.483V41.28H134.983V0.719999H133.483ZM115.303 42V41.28H116.803V0.719999H115.303V-2.86102e-06H122.923V0.719999H121.723V11.52C121.723 12.32 121.863 12.92 122.143 13.32C122.463 13.72 122.983 13.92 123.703 13.92C125.623 13.92 127.123 14.02 128.203 14.22C129.323 14.42 130.143 15 130.663 15.96C131.183 16.92 131.503 18.4 131.623 20.4C131.783 22.4 131.863 25.22 131.863 28.86C131.863 32.14 131.703 34.68 131.383 36.48C131.063 38.24 130.503 39.54 129.703 40.38C128.903 41.18 127.843 41.66 126.523 41.82C125.203 41.94 123.583 42 121.663 42H115.303ZM121.663 41.28C122.423 41.28 123.143 41.24 123.823 41.16C124.543 41.08 125.143 40.66 125.623 39.9C126.143 39.14 126.543 37.92 126.823 36.24C127.103 34.56 127.243 32.1 127.243 28.86C127.243 25.58 127.203 23 127.123 21.12C127.083 19.24 126.943 17.84 126.703 16.92C126.503 15.96 126.183 15.36 125.743 15.12C125.303 14.88 124.703 14.76 123.943 14.76C123.103 14.76 122.523 14.64 122.203 14.4C121.883 14.16 121.723 13.88 121.723 13.56L121.663 41.28ZM175.817 22.08H171.437C171.197 22.08 170.857 22.1 170.417 22.14C170.017 22.18 169.617 22.28 169.217 22.44C168.817 22.56 168.477 22.74 168.197 22.98C167.917 23.22 167.777 23.54 167.777 23.94V41.28H168.977V42H161.357V41.28H162.857V0.719999H161.357V-2.86102e-06H168.977V0.719999H167.717L167.777 22.32C167.777 22.16 167.897 22.02 168.137 21.9C168.377 21.78 168.697 21.68 169.097 21.6C169.497 21.48 169.917 21.4 170.357 21.36C170.797 21.28 171.237 21.24 171.677 21.24H175.817V0.719999H174.317V-2.86102e-06H181.937V0.719999H180.677L180.737 41.28H181.937V42H174.317V41.28H175.817V22.08ZM196.456 31.08L192.136 2.94L188.116 32.94C188.116 32.34 188.516 31.88 189.316 31.56C190.156 31.24 191.056 31.08 192.016 31.08H196.456ZM196.576 31.68H191.776C191.416 31.68 191.016 31.72 190.576 31.8C190.176 31.84 189.776 31.96 189.376 32.16C189.016 32.32 188.696 32.56 188.416 32.88C188.176 33.16 188.036 33.54 187.996 34.02L187.036 41.4H188.056V42C187.936 42 187.696 42 187.336 42C187.016 42 186.696 42 186.376 42C186.056 42 185.776 42 185.536 42C185.256 42 185.116 41.98 185.116 41.94V41.4H186.076C186.076 41.36 186.156 40.76 186.316 39.6C186.476 38.4 186.676 36.86 186.916 34.98C187.196 33.06 187.496 30.88 187.816 28.44C188.136 26 188.456 23.52 188.776 21C189.536 15.04 190.396 8.28 191.356 0.719999H189.856V-2.86102e-06H196.336L203.836 41.4H205.036V42H196.456V41.4H197.956L196.576 31.68ZM221.488 41.28V0.719999H219.988V-2.86102e-06H227.608V0.719999H226.408L226.348 41.28H233.368V0.719999H231.868V-2.86102e-06H239.728V0.719999H238.288L238.228 41.28H239.788V42H208.408V41.28H209.908V0.719999H208.408V-2.86102e-06H216.028V0.719999H214.828L214.768 41.28H221.488ZM259.791 9.6C259.791 9.6 259.651 9.98 259.371 10.74C259.131 11.46 258.811 12.44 258.411 13.68C258.051 14.88 257.611 16.26 257.091 17.82C256.611 19.38 256.111 20.96 255.591 22.56C254.351 26.36 252.951 30.66 251.391 35.46V41.28H252.591V42H244.971V41.28H246.471V0.719999H244.971V-2.86102e-06H252.591V0.719999H251.331L251.391 33.12C251.391 33.12 251.511 32.76 251.751 32.04C252.031 31.28 252.371 30.3 252.771 29.1C253.171 27.86 253.611 26.48 254.091 24.96C254.611 23.4 255.131 21.8 255.651 20.16C256.891 16.36 258.271 12.06 259.791 7.26V0.719999H258.291V-2.86102e-06H265.911V0.719999H264.651L264.711 41.28H265.911V42H258.291V41.28H259.791V9.6ZM278.546 22.92L271.586 0.719999H270.326V-2.86102e-06H278.126V0.719999H276.626L281.846 17.88L288.206 0.719999H286.886V-2.86102e-06H290.186V0.719999H289.106L282.326 18.84L288.926 41.28H290.186V42H282.266V41.28H283.766L279.146 24L272.306 41.28H273.626V42H270.326V41.28H271.406L278.546 22.92ZM58.0618 101.22C58.6618 101.22 59.1818 101.04 59.6218 100.68C60.0618 100.28 60.4418 99.74 60.7618 99.06C61.0818 98.38 61.3818 97.58 61.6618 96.66C61.9418 95.74 62.2418 94.76 62.5618 93.72L53.2618 60.72H52.0618V60H59.4418V60.72H58.0618L64.9618 85.14L70.9018 60.72H69.7618V60H72.8218V60.72H71.8018L63.3418 94.62C62.9818 95.82 62.6218 96.88 62.2618 97.8C61.9418 98.72 61.5818 99.5 61.1818 100.14C60.8218 100.74 60.3818 101.2 59.8618 101.52C59.3418 101.8 58.7218 101.94 58.0018 101.94C57.0018 101.94 56.1818 101.74 55.5418 101.34C54.9018 100.9 54.4218 100.4 54.1018 99.84C53.8218 99.28 53.6618 98.7 53.6218 98.1C53.6218 97.46 53.7218 96.92 53.9218 96.48C54.1618 96.04 54.5018 95.74 54.9418 95.58C55.3818 95.42 55.8818 95.52 56.4418 95.88C57.1218 96.28 57.5018 96.7 57.5818 97.14C57.7018 97.54 57.6618 97.92 57.4618 98.28C57.3018 98.64 57.0818 98.98 56.8018 99.3C56.5218 99.62 56.3218 99.92 56.2018 100.2C56.0818 100.44 56.1418 100.66 56.3818 100.86C56.6218 101.02 57.1818 101.14 58.0618 101.22ZM92.3312 84.84C91.2912 86.04 90.0112 86.8 88.4912 87.12C86.9712 87.44 85.4912 87.34 84.0512 86.82C82.6512 86.26 81.4512 85.28 80.4512 83.88C79.4512 82.44 78.9512 80.58 78.9512 78.3V60.72H77.4512V60H85.0712V60.72H83.8112V78.3C83.8112 80.62 84.0512 82.4 84.5312 83.64C85.0512 84.88 85.7112 85.68 86.5112 86.04C87.3512 86.4 88.2712 86.36 89.2712 85.92C90.3112 85.48 91.3312 84.74 92.3312 83.7V60.72H90.8312V60H98.4512V60.72H97.1912L97.2512 101.28H98.4512V102H90.8312V101.28H92.3312V84.84ZM118.813 60V62.64H118.033V60.72H110.413L110.473 80.34C110.473 79.94 110.633 79.64 110.953 79.44C111.273 79.2 111.853 79.08 112.693 79.08H115.573V77.82H116.353V81H115.573V79.86H112.453C111.733 79.86 111.213 80.06 110.893 80.46C110.613 80.86 110.473 81.46 110.473 82.26V101.28H118.033V99.36H118.813V102H104.053V101.28H105.553V60.72H104.053V60H118.813ZM137.087 82.08H132.707C132.467 82.08 132.127 82.1 131.687 82.14C131.287 82.18 130.887 82.28 130.487 82.44C130.087 82.56 129.747 82.74 129.467 82.98C129.187 83.22 129.047 83.54 129.047 83.94V101.28H130.247V102H122.627V101.28H124.127V60.72H122.627V60H130.247V60.72H128.987L129.047 82.32C129.047 82.16 129.167 82.02 129.407 81.9C129.647 81.78 129.967 81.68 130.367 81.6C130.767 81.48 131.187 81.4 131.627 81.36C132.067 81.28 132.507 81.24 132.947 81.24H137.087V60.72H135.587V60H143.207V60.72H141.947L142.007 101.28H143.207V102H135.587V101.28H137.087V82.08ZM162.525 69.6C162.525 69.6 162.385 69.98 162.105 70.74C161.865 71.46 161.545 72.44 161.145 73.68C160.785 74.88 160.345 76.26 159.825 77.82C159.345 79.38 158.845 80.96 158.325 82.56C157.085 86.36 155.685 90.66 154.125 95.46V101.28H155.325V102H147.705V101.28H149.205V60.72H147.705V60H155.325V60.72H154.065L154.125 93.12C154.125 93.12 154.245 92.76 154.485 92.04C154.765 91.28 155.105 90.3 155.505 89.1C155.905 87.86 156.345 86.48 156.825 84.96C157.345 83.4 157.865 81.8 158.385 80.16C159.625 76.36 161.005 72.06 162.525 67.26V60.72H161.025V60H168.645V60.72H167.385L167.445 101.28H168.645V102H161.025V101.28H162.525V69.6ZM186.261 66.48C186.541 64.8 186.961 63.48 187.521 62.52C188.121 61.56 188.741 60.88 189.381 60.48C190.061 60.08 190.721 59.92 191.361 60C192.001 60.08 192.521 60.3 192.921 60.66C193.321 60.98 193.561 61.42 193.641 61.98C193.761 62.5 193.601 63.02 193.161 63.54C192.641 64.1 192.161 64.4 191.721 64.44C191.321 64.44 190.921 64.34 190.521 64.14C190.161 63.94 189.821 63.72 189.501 63.48C189.181 63.2 188.881 63.08 188.601 63.12C188.321 63.16 188.061 63.44 187.821 63.96C187.581 64.48 187.341 65.38 187.101 66.66C186.661 68.7 186.421 70.5 186.381 72.06C186.341 73.62 186.221 74.92 186.021 75.96C185.821 77 185.401 77.78 184.761 78.3C184.161 78.82 183.101 79.08 181.581 79.08C183.421 79.08 184.941 79.3 186.141 79.74C187.381 80.14 188.361 80.78 189.081 81.66C189.841 82.5 190.361 83.58 190.641 84.9C190.961 86.18 191.121 87.68 191.121 89.4C191.161 91.32 191.181 93.02 191.181 94.5C191.181 95.98 191.241 97.22 191.361 98.22C191.521 99.18 191.781 99.92 192.141 100.44C192.501 100.96 193.081 101.22 193.881 101.22V102C191.961 102 190.481 101.72 189.441 101.16C188.401 100.6 187.641 99.78 187.161 98.7C186.681 97.62 186.401 96.3 186.321 94.74C186.281 93.18 186.261 91.4 186.261 89.4C186.261 87 186.041 85.18 185.601 83.94C185.161 82.66 184.621 81.74 183.981 81.18C183.341 80.62 182.661 80.32 181.941 80.28C181.221 80.2 180.601 80.16 180.081 80.16L180.141 101.28H181.341V102H173.721V101.28H175.221V60.72H173.721V60H181.341V60.72H180.081V78.6C181.801 78.6 183.001 78.42 183.681 78.06C184.361 77.66 184.801 77 185.001 76.08C185.241 75.12 185.381 73.88 185.421 72.36C185.501 70.8 185.781 68.84 186.261 66.48ZM200.402 93C200.362 88.2 200.342 84.26 200.342 81.18C200.382 78.1 200.402 75.66 200.402 73.86V69C200.402 68.04 200.442 67.04 200.522 66C200.602 64.92 200.882 63.94 201.362 63.06C201.842 62.18 202.602 61.46 203.642 60.9C204.722 60.3 206.222 60 208.142 60C210.102 60 211.602 60.26 212.642 60.78C213.722 61.26 214.502 61.92 214.982 62.76C215.502 63.56 215.802 64.5 215.882 65.58C215.962 66.66 215.982 67.8 215.942 69C215.942 72.04 215.942 74.72 215.942 77.04C215.982 79.32 216.002 81.32 216.002 83.04C216.002 84.72 216.002 86.14 216.002 87.3C216.042 88.46 216.062 89.4 216.062 90.12C216.062 91.84 216.082 92.8 216.122 93C216.122 94.52 216.082 95.84 216.002 96.96C215.922 98.08 215.622 99.02 215.102 99.78C214.622 100.5 213.842 101.06 212.762 101.46C211.682 101.82 210.142 102 208.142 102C206.222 102 204.722 101.82 203.642 101.46C202.602 101.06 201.842 100.48 201.362 99.72C200.882 98.96 200.602 98.04 200.522 96.96C200.442 95.84 200.402 94.52 200.402 93ZM205.022 93C205.022 94.32 205.042 95.5 205.082 96.54C205.122 97.54 205.222 98.4 205.382 99.12C205.582 99.8 205.882 100.34 206.282 100.74C206.722 101.1 207.342 101.28 208.142 101.28C208.902 101.28 209.482 101.1 209.882 100.74C210.322 100.34 210.642 99.8 210.842 99.12C211.042 98.4 211.142 97.54 211.142 96.54C211.182 95.5 211.202 94.32 211.202 93V88.92C211.202 87.24 211.182 84.84 211.142 81.72C211.142 78.56 211.122 74.32 211.082 69C211.122 67.96 211.122 66.96 211.082 66C211.042 65 210.922 64.12 210.722 63.36C210.562 62.56 210.262 61.92 209.822 61.44C209.422 60.96 208.862 60.72 208.142 60.72C207.342 60.72 206.722 61 206.282 61.56C205.882 62.08 205.582 62.76 205.382 63.6C205.222 64.4 205.122 65.3 205.082 66.3C205.042 67.26 205.022 68.16 205.022 69V74.76C205.022 76.72 205.002 79.22 204.962 82.26C204.962 85.26 204.982 88.84 205.022 93ZM226.84 101.16C227.76 101.16 228.56 101.1 229.24 100.98C229.96 100.82 230.54 100.3 230.98 99.42C231.46 98.54 231.82 97.14 232.06 95.22C232.3 93.3 232.42 90.56 232.42 87C232.42 84.32 232.38 82.16 232.3 80.52C232.22 78.84 232.04 77.54 231.76 76.62C231.48 75.66 231.1 75.02 230.62 74.7C230.14 74.34 229.52 74.16 228.76 74.16C228.04 74.16 227.52 74.36 227.2 74.76C226.92 75.16 226.78 75.76 226.78 76.56L226.84 101.16ZM220.42 60H226.78C228.7 60 230.22 60.2 231.34 60.6C232.5 60.96 233.38 61.48 233.98 62.16C234.58 62.8 234.96 63.54 235.12 64.38C235.32 65.22 235.42 66.08 235.42 66.96C235.42 68 235.4 68.94 235.36 69.78C235.32 70.58 235.16 71.28 234.88 71.88C234.6 72.44 234.18 72.88 233.62 73.2C233.06 73.52 232.26 73.68 231.22 73.68C232.66 73.68 233.78 74.02 234.58 74.7C235.38 75.34 235.96 76.24 236.32 77.4C236.68 78.56 236.88 79.96 236.92 81.6C237 83.24 237.04 85.04 237.04 87C237.04 90.72 236.86 93.6 236.5 95.64C236.18 97.64 235.62 99.12 234.82 100.08C234.06 101.04 233.02 101.6 231.7 101.76C230.42 101.92 228.8 102 226.84 102H220.42V101.16H221.92V60.84H220.42V60ZM226.78 74.46C226.78 74.14 226.94 73.86 227.26 73.62C227.58 73.38 228.16 73.26 229 73.26C229.72 73.26 230.28 73.22 230.68 73.14C231.08 73.06 231.38 72.86 231.58 72.54C231.78 72.18 231.9 71.66 231.94 70.98C231.98 70.3 232 69.36 232 68.16C232 66.32 231.88 64.92 231.64 63.96C231.44 62.96 231.12 62.24 230.68 61.8C230.24 61.32 229.7 61.04 229.06 60.96C228.42 60.88 227.66 60.84 226.78 60.84V74.46Z" fill="url(#paint0_linear_64_591)"/>
<defs>
<linearGradient id="paint0_linear_64_591" x1="-38" y1="93.8631" x2="316.731" y2="-55.1899" gradientUnits="userSpaceOnUse">
<stop stop-color="#F4D5CC"/>
<stop offset="0.505208" stop-color="#FFF4F1"/>
<stop offset="1" stop-color="#F4D5CC"/>
</linearGradient>
</defs>
</svg>
